<svg width="1600" height="2400" viewBox="0 0 1600 2400" xmlns="http://www.w3.org/2000/svg">
  <defs>
    <linearGradient id="bg" x1="0.5" y1="0" x2="0.5" y2="1">
      <stop offset="0%" stop-color="#050715"/>
      <stop offset="38%" stop-color="#0b0b1f"/>
      <stop offset="100%" stop-color="#160909"/>
    </linearGradient>
    <linearGradient id="glow" x1="0" y1="0" x2="1" y2="1">
      <stop offset="0%" stop-color="#ffdca8" stop-opacity="0.45"/>
      <stop offset="100%" stop-color="#c77a2b" stop-opacity="0"/>
    </linearGradient>
    <linearGradient id="towerA" x1="0.2" y1="0" x2="0.8" y2="1">
      <stop offset="0%" stop-color="#2f3e5c"/>
      <stop offset="100%" stop-color="#0f182c"/>
    </linearGradient>
    <linearGradient id="towerB" x1="0.8" y1="0" x2="0.2" y2="1">
      <stop offset="0%" stop-color="#374863"/>
      <stop offset="100%" stop-color="#111b31"/>
    </linearGradient>
  </defs>
  <rect width="1600" height="2400" fill="url(#bg)"/>
  <g opacity="0.35">
    <circle cx="220" cy="260" r="3" fill="#ffe7c4"/>
    <circle cx="420" cy="140" r="2.3" fill="#ffe7c4"/>
    <circle cx="1220" cy="220" r="2.8" fill="#ffe7c4"/>
    <circle cx="980" cy="340" r="2" fill="#ffe7c4"/>
    <circle cx="1350" cy="150" r="1.5" fill="#ffe7c4"/>
    <circle cx="760" cy="210" r="2.2" fill="#ffe7c4"/>
  </g>
  <g style="mix-blend-mode:screen" opacity="0.6">
    <ellipse cx="820" cy="980" rx="560" ry="320" fill="url(#glow)"/>
    <ellipse cx="780" cy="1380" rx="420" ry="240" fill="url(#glow)"/>
  </g>
  <g opacity="0.9">
    <rect x="610" y="360" width="200" height="1500" rx="8" fill="url(#towerA)"/>
    <rect x="820" y="320" width="210" height="1560" rx="8" fill="url(#towerB)"/>
  </g>
  <g opacity="0.12" fill="#ffd289">
    <rect x="640" y="430" width="146" height="10" rx="4"/>
    <rect x="640" y="520" width="146" height="10" rx="4"/>
    <rect x="640" y="610" width="146" height="10" rx="4"/>
    <rect x="640" y="700" width="146" height="10" rx="4"/>
    <rect x="870" y="380" width="150" height="10" rx="4"/>
    <rect x="870" y="470" width="150" height="10" rx="4"/>
    <rect x="870" y="560" width="150" height="10" rx="4"/>
    <rect x="870" y="650" width="150" height="10" rx="4"/>
  </g>
  <g opacity="0.18" fill="#ffb965">
    <rect x="640" y="940" width="146" height="160" rx="12"/>
    <rect x="870" y="1020" width="150" height="180" rx="12"/>
  </g>
  <g opacity="0.75" fill="#ffb347">
    <circle cx="640" cy="1280" r="3.2"/>
    <circle cx="700" cy="1360" r="2.4"/>
    <circle cx="760" cy="1440" r="2.8"/>
    <circle cx="920" cy="1340" r="2.6"/>
    <circle cx="980" cy="1420" r="3"/>
    <circle cx="1040" cy="1520" r="2.2"/>
  </g>
</svg>
